<?xml version="1.0" encoding="UTF-8"?>
<svg xmlns="http://www.w3.org/2000/svg" version="1.1" viewBox="0 0 450 230">
  <defs>
    <style>
      .cls-1 {
        fill: #6f6f6e;
      }

      .cls-2 {
        fill: #e55124;
      }

      .cls-3 {
        fill: #575756;
      }

      .cls-4 {
        fill: #ec6a2c;
      }

      .cls-5 {
        fill: #d24a23;
      }
    </style>
  </defs>
  <g>
    <g id="Ebene_1">
      <g>
        <g>
          <g>
            <path class="cls-4" d="M214.97,45.88h11.36v11.43h-24.33V11.78h24.33v11.43h-11.36v5.64h7.94v11.43h-7.94v5.61Z"/>
            <path class="cls-3" d="M227.33,58.31h-26.33V10.78h26.33v13.43h-11.36v3.64h7.94v13.43h-7.94v3.61h11.36v13.43ZM203,56.31h22.33v-9.43h-11.36v-7.61h7.94v-9.43h-7.94v-7.64h11.36v-9.43h-22.33v43.54Z"/>
          </g>
          <g>
            <path class="cls-4" d="M230.29,57.31V11.78h12.97c4.5,0,7.52.16,9.04.48,1.53.32,2.85,1.04,3.98,2.16,1.13,1.12,2.04,2.66,2.73,4.6.69,1.94,1.03,3.99,1.03,6.16,0,4.58-1.1,8.02-3.31,10.33,3.18,5.57,5.08,12.84,5.68,21.81h-13.48v-.42c0-5.35-.48-9.43-1.44-12.24-.96-2.8-2.32-4.21-4.07-4.21h-.17v16.86h-12.97ZM243.48,21.15h-.23v8.77h.34c1.26,0,2.18-.36,2.74-1.07.57-.72.85-1.86.85-3.43,0-2.84-1.23-4.27-3.7-4.27Z"/>
            <path class="cls-3" d="M263.48,58.31h-15.55v-1.42c0-5.22-.47-9.22-1.39-11.91-.62-1.81-1.39-2.93-2.29-3.35v16.68h-14.97V10.78h13.97c4.61,0,7.64.16,9.25.5,1.71.36,3.22,1.17,4.48,2.43,1.23,1.23,2.23,2.9,2.96,4.97.72,2.04,1.09,4.22,1.09,6.5,0,4.47-1.04,7.99-3.09,10.46,3.03,5.6,4.87,12.86,5.46,21.61l.07,1.07ZM249.93,56.31h11.4c-.67-8.3-2.51-15.13-5.47-20.32l-.37-.65.52-.54c2.01-2.1,3.03-5.35,3.03-9.63,0-2.04-.33-4-.97-5.83-.63-1.79-1.47-3.21-2.49-4.22-1-.99-2.14-1.61-3.48-1.89-1.45-.3-4.43-.46-8.84-.46h-11.97v43.54h10.97v-16.86h1.17c2.22,0,3.91,1.64,5.02,4.88.96,2.79,1.46,6.82,1.49,11.98ZM243.6,30.92h-1.34v-10.77h1.23c1.76,0,4.7.68,4.7,5.27,0,1.82-.35,3.15-1.06,4.05-.76.97-1.95,1.46-3.53,1.46ZM244.26,22.21v6.67c.59-.09,1.02-.3,1.29-.65.41-.53.63-1.5.63-2.81,0-2.32-.89-3.02-1.93-3.21Z"/>
          </g>
          <g>
            <path class="cls-4" d="M278.49,43.5v13.82h-12.97V11.78h9.27l6.89,15.22v-15.22h12.97v45.84h-9.86l-6.3-14.11Z"/>
            <path class="cls-3" d="M295.66,58.61h-11.51l-4.65-10.42v10.12h-14.97V10.78h10.91l5.25,11.59v-11.59h14.97v47.84ZM285.44,56.61h8.21V12.78h-10.97v18.85l-8.54-18.85h-7.62v43.54h10.97v-17.51l7.95,17.81Z"/>
          </g>
          <g>
            <path class="cls-4" d="M301.18,39.41c.9,2.19,2.04,3.95,3.42,5.28,1.37,1.33,2.67,2,3.87,2,.66,0,1.19-.24,1.6-.72.4-.48.61-1.09.61-1.85,0-.72-.15-1.34-.45-1.86s-.76-.99-1.38-1.39l-3.14-2.09c-2.28-1.47-3.93-3.18-4.96-5.13-1.03-1.95-1.54-4.35-1.54-7.19,0-10.3,4.69-15.46,14.07-15.46,4.22,0,8.14,1.03,11.76,3.1l-3.25,14.35c-.98-2.17-2.11-3.84-3.39-5.01-1.28-1.17-2.58-1.76-3.9-1.76-.68,0-1.22.21-1.64.64-.41.43-.62.99-.62,1.69,0,.91.27,1.65.81,2.21.54.56,1.81,1.45,3.83,2.69,2.09,1.23,3.71,2.41,4.86,3.52,1.15,1.11,2.06,2.51,2.74,4.19.68,1.68,1.02,3.69,1.02,6.01,0,10.25-4.71,15.37-14.13,15.37-4.84,0-9.3-1.12-13.37-3.37l3.19-15.22Z"/>
            <path class="cls-3" d="M311.36,59c-4.99,0-9.65-1.18-13.85-3.5l-.65-.36,4.01-19.11,1.24,2.99c.85,2.05,1.92,3.72,3.19,4.95,1.18,1.14,2.24,1.72,3.18,1.72.36,0,.62-.11.83-.36.25-.29.37-.69.37-1.2,0-.54-.1-.99-.32-1.37-.22-.38-.57-.73-1.06-1.04l-3.15-2.1c-2.4-1.55-4.19-3.41-5.29-5.5-1.1-2.09-1.66-4.66-1.66-7.66,0-10.92,5.07-16.46,15.07-16.46,4.38,0,8.5,1.09,12.25,3.24l.64.37-4.04,17.83c.1.09.19.18.29.27,1.24,1.21,2.24,2.73,2.97,4.54.72,1.79,1.09,3.94,1.09,6.39,0,10.86-5.09,16.37-15.13,16.37ZM299.12,54.1c3.73,1.93,7.84,2.9,12.23,2.9,8.83,0,13.13-4.7,13.13-14.37,0-2.19-.32-4.08-.94-5.64-.62-1.54-1.47-2.84-2.51-3.85-1.09-1.05-2.66-2.19-4.67-3.38-2.15-1.32-3.43-2.22-4.04-2.85-.72-.75-1.08-1.72-1.08-2.9,0-.96.3-1.76.9-2.38.6-.62,1.42-.95,2.36-.95,1.57,0,3.11.68,4.58,2.02.84.77,1.62,1.74,2.34,2.9l2.49-10.98c-3.27-1.74-6.84-2.62-10.61-2.62-8.8,0-13.07,4.73-13.07,14.46,0,2.67.48,4.93,1.42,6.73.94,1.79,2.49,3.39,4.62,4.76l3.15,2.1c.74.48,1.32,1.06,1.7,1.72.39.68.58,1.47.58,2.36,0,1-.28,1.84-.84,2.5-.59.7-1.41,1.07-2.36,1.07-1.47,0-3.01-.77-4.57-2.28-.86-.84-1.64-1.83-2.33-2.99l-2.45,11.68ZM314.49,22.68c-.53,0-.78.19-.92.34-.15.15-.34.42-.34.99,0,.65.17,1.15.52,1.51.33.34,1.22,1.05,3.63,2.53,1.88,1.11,3.41,2.19,4.57,3.23l-1.09-2.41c-.92-2.03-1.98-3.61-3.16-4.69-1.08-.99-2.17-1.5-3.22-1.5Z"/>
          </g>
          <g>
            <path class="cls-4" d="M346.45,57.31h-12.97v-27.13h-6.53V11.78h26.03v18.41h-6.53v27.13Z"/>
            <path class="cls-3" d="M347.45,58.31h-14.97v-27.13h-6.53V10.78h28.03v20.41h-6.53v27.13ZM334.48,56.31h10.97v-27.13h6.53V12.78h-24.03v16.41h6.53v27.13Z"/>
          </g>
          <g>
            <path class="cls-4" d="M370.16,11c3.88,0,7.27,2.28,10.17,6.85,2.9,4.57,4.35,10,4.35,16.31,0,7.1-1.43,12.85-4.28,17.25-2.85,4.4-6.53,6.59-11.03,6.59-3.82,0-7.23-2.14-10.23-6.42-3-4.28-4.49-10.28-4.49-17.99,0-3.76.64-7.37,1.92-10.83,1.28-3.46,3.06-6.29,5.34-8.48s5.03-3.28,8.25-3.28ZM369.65,28.52c-.83,0-1.53.45-2.11,1.36-.57.91-.86,2.04-.86,3.42s.28,2.54.85,3.43,1.27,1.34,2.12,1.34,1.58-.44,2.15-1.33c.57-.88.85-2.03.85-3.45s-.28-2.51-.85-3.42c-.57-.9-1.28-1.36-2.15-1.36Z"/>
            <path class="cls-3" d="M369.37,59c-4.15,0-7.87-2.3-11.05-6.84-3.1-4.43-4.67-10.68-4.67-18.57,0-3.86.67-7.62,1.98-11.18,1.33-3.59,3.21-6.57,5.59-8.85,2.46-2.36,5.47-3.56,8.94-3.56,4.23,0,7.93,2.46,11.02,7.31,2.99,4.71,4.51,10.38,4.51,16.85,0,7.27-1.49,13.25-4.44,17.79-3.04,4.68-7.03,7.05-11.87,7.05ZM370.16,12c-2.98,0-5.45.98-7.56,3-2.16,2.07-3.87,4.8-5.1,8.1-1.23,3.33-1.86,6.86-1.86,10.48,0,7.47,1.45,13.33,4.31,17.42,2.82,4.03,5.9,5.99,9.41,5.99,4.18,0,7.51-2.01,10.2-6.14,2.73-4.21,4.12-9.83,4.12-16.7,0-6.08-1.41-11.39-4.2-15.77-2.73-4.3-5.78-6.38-9.33-6.38ZM369.65,39.07c-.83,0-2.02-.31-2.97-1.81-.66-1.05-1-2.39-1-3.97s.34-2.89,1.02-3.95c.96-1.51,2.13-1.82,2.95-1.82s2.05.32,3,1.83c.66,1.06,1,2.39,1,3.95s-.34,2.94-1,3.98c-.94,1.48-2.15,1.79-2.99,1.79ZM369.65,29.52c-.3,0-.75.09-1.26.89-.47.74-.71,1.71-.71,2.88s.23,2.17.69,2.9c.5.79.96.88,1.27.88s.81-.09,1.3-.87c.46-.72.69-1.7.69-2.91s-.23-2.15-.7-2.89c-.5-.8-.98-.89-1.3-.89Z"/>
          </g>
          <g>
            <path class="cls-4" d="M389.38,57.31V11.78h12.97c4.5,0,7.52.16,9.04.48,1.53.32,2.85,1.04,3.98,2.16,1.13,1.12,2.04,2.66,2.73,4.6.69,1.94,1.03,3.99,1.03,6.16,0,4.58-1.1,8.02-3.31,10.33,3.18,5.57,5.08,12.84,5.68,21.81h-13.48v-.42c0-5.35-.48-9.43-1.44-12.24-.96-2.8-2.32-4.21-4.07-4.21h-.17v16.86h-12.97ZM402.57,21.15h-.23v8.77h.34c1.26,0,2.18-.36,2.74-1.07.57-.72.85-1.86.85-3.43,0-2.84-1.23-4.27-3.7-4.27Z"/>
            <path class="cls-3" d="M422.57,58.31h-15.55v-1.42c0-5.22-.47-9.22-1.39-11.91-.62-1.81-1.39-2.93-2.29-3.35v16.68h-14.97V10.78h13.97c4.61,0,7.64.16,9.25.5,1.71.36,3.22,1.17,4.48,2.43,1.23,1.23,2.23,2.9,2.96,4.97.72,2.04,1.09,4.22,1.09,6.5,0,4.47-1.04,7.99-3.09,10.46,3.03,5.6,4.87,12.86,5.46,21.61l.07,1.07ZM409.02,56.31h11.4c-.67-8.3-2.51-15.13-5.47-20.32l-.37-.65.52-.54c2.01-2.1,3.03-5.35,3.03-9.63,0-2.04-.33-4-.97-5.83-.63-1.79-1.47-3.21-2.49-4.22-1-.99-2.14-1.61-3.48-1.89-1.45-.3-4.43-.46-8.84-.46h-11.97v43.54h10.97v-16.86h1.17c2.22,0,3.91,1.64,5.02,4.88.96,2.79,1.46,6.82,1.49,11.98ZM402.69,30.92h-1.34v-10.77h1.23c1.76,0,4.7.68,4.7,5.27,0,1.82-.35,3.15-1.06,4.05-.76.97-1.95,1.46-3.53,1.46ZM403.35,22.21v6.67c.59-.09,1.02-.3,1.29-.65.41-.53.63-1.5.63-2.81,0-2.32-.89-3.02-1.93-3.21Z"/>
          </g>
          <g>
            <path class="cls-4" d="M437.58,57.31h-12.97V11.78h24.39v11.43h-11.42v8.27h8.28v11.43h-8.28v14.41Z"/>
            <path class="cls-3" d="M438.58,58.31h-14.97V10.78h26.39v13.43h-11.42v6.27h8.28v13.43h-8.28v14.41ZM425.61,56.31h10.97v-14.41h8.28v-9.43h-8.28v-10.27h11.42v-9.43h-22.39v43.54Z"/>
          </g>
        </g>
        <g>
          <path class="cls-5" d="M409.44,70v14.18c0,.98,0,1.89-.02,2.77h.02v16.71c0,.21,0,.4,0,.6h0v16.71c0,4.84-.14,8.36-.42,10.53-.28,2.18-.95,4.46-2.02,6.84-1.07,2.38-2.53,4.42-4.38,6.12-1.85,1.7-3.96,3.02-6.32,3.96-2.36.94-4.77,1.41-7.23,1.41-3.14,0-6.2-.73-9.17-2.18-2.97-1.45-5.3-3.4-6.99-5.84-1.69-2.44-2.84-5.08-3.45-7.93-.61-2.84-.91-7.11-.91-12.8v-16.83h0c0-.16,0-.32,0-.48v-16.83h.03c-.02-.85-.03-1.72-.03-2.65v-14.3h-39.56v42.84c0,14.48.89,25.34,2.67,32.57,1.78,7.24,5.16,13.97,10.12,20.18,4.96,6.22,11.8,11.17,20.52,14.87,8.72,3.7,17.69,5.54,26.92,5.54,7.21,0,14.28-1.2,21.22-3.6,6.94-2.4,13.12-5.75,18.55-10.07,5.43-4.32,9.71-9.51,12.85-15.58s5.12-11.87,5.93-17.41c.81-5.54,1.22-14.48,1.22-26.81v-42.54h-39.56Z"/>
          <path class="cls-3" d="M389.23,187c-9.32,0-18.51-1.89-27.31-5.62-8.84-3.74-15.87-8.84-20.92-15.16-5.03-6.3-8.5-13.22-10.31-20.57-1.79-7.28-2.7-18.32-2.7-32.81v-43.84h41.56v15.3c0,.92.01,1.79.03,2.63l.02,1.02h-.05v33.14c0,5.59.3,9.83.89,12.59.58,2.7,1.68,5.25,3.29,7.57,1.58,2.29,3.81,4.14,6.61,5.51,5.01,2.45,10.49,2.77,15.59.73,2.24-.89,4.26-2.16,6.01-3.76,1.74-1.6,3.13-3.54,4.14-5.79,1.02-2.28,1.68-4.49,1.94-6.56.27-2.12.41-5.63.41-10.41l-.02-34.04c.01-.87.02-1.78.02-2.75v-15.18h41.56v43.54c0,12.32-.41,21.39-1.23,26.96-.83,5.63-2.86,11.59-6.03,17.73-3.19,6.16-7.6,11.51-13.11,15.9-5.49,4.37-11.83,7.81-18.84,10.23-7.01,2.42-14.26,3.65-21.55,3.65ZM330,71v41.84c0,14.33.89,25.21,2.65,32.34,1.74,7.06,5.08,13.73,9.93,19.8,4.83,6.05,11.6,10.96,20.13,14.57,8.55,3.62,17.48,5.46,26.53,5.46,7.07,0,14.1-1.19,20.89-3.54,6.8-2.35,12.94-5.68,18.25-9.91,5.29-4.21,9.52-9.34,12.58-15.25,3.07-5.94,5.04-11.69,5.83-17.1.8-5.47,1.21-14.44,1.21-26.66v-41.54h-37.56v13.18c0,.76,0,1.47-.01,2.16v.61s.01,34.02.01,34.02c0,4.86-.14,8.45-.42,10.66-.29,2.26-1,4.66-2.1,7.12-1.12,2.5-2.67,4.67-4.61,6.45-1.93,1.77-4.16,3.17-6.63,4.15-5.62,2.24-11.69,1.9-17.21-.8-3.11-1.52-5.6-3.6-7.38-6.17-1.76-2.54-2.97-5.33-3.6-8.29-.62-2.9-.93-7.27-.93-13.01v-35.14c0-.53,0-1.08,0-1.65v-13.3h-37.56Z"/>
        </g>
        <g>
          <path class="cls-5" d="M292.58,70h-57.04l-32.31,116h40.49l5.14-19.76h29.09l5.22,19.76h40.06l-30.65-116ZM253.48,139.68l10.05-38.05,9.82,38.05h-19.87Z"/>
          <path class="cls-3" d="M324.53,187h-42.13l-5.22-19.76h-27.54l-5.14,19.76h-42.58l32.86-118h58.57l31.18,118ZM283.95,185h37.99l-30.12-114h-55.51l-31.75,114h38.4l5.14-19.76h30.63l5.22,19.76ZM274.63,140.68h-22.46l11.36-43.01,11.1,43.01ZM254.77,138.68h17.28l-8.54-33.09-8.74,33.09Z"/>
        </g>
        <g>
          <g>
            <path class="cls-4" d="M41.44,223.07v5.54H1v-30.22h13.21v24.68h27.23Z"/>
            <path class="cls-3" d="M42.44,229.61H0v-32.22h15.21v24.68h27.23v7.54ZM2,227.61h38.44v-3.54H13.21v-24.68H2v28.22Z"/>
          </g>
          <g>
            <path class="cls-4" d="M88.19,198.39h13.21v17.15c0,4.41-2.29,7.76-6.87,10.04-4.58,2.28-11.13,3.42-19.63,3.42s-14.93-1.15-19.57-3.46c-4.65-2.31-6.97-5.62-6.97-9.95v-17.2h13.25v17.37c0,2.11,1.21,3.79,3.63,5.06,2.42,1.27,5.59,1.9,9.51,1.9s7.33-.65,9.78-1.95c2.44-1.3,3.66-3.14,3.66-5.54v-16.85Z"/>
            <path class="cls-3" d="M74.89,230c-8.52,0-15.26-1.2-20.02-3.57-4.99-2.48-7.52-6.13-7.52-10.85v-18.2h15.25v18.37c0,1.72,1.01,3.09,3.09,4.18,2.26,1.19,5.3,1.79,9.05,1.79s7.02-.62,9.31-1.83c2.11-1.12,3.13-2.64,3.13-4.65v-17.85h15.21v18.16c0,4.8-2.5,8.48-7.43,10.93-4.7,2.34-11.46,3.52-20.08,3.52Z"/>
          </g>
          <g>
            <path class="cls-4" d="M166.6,198.39v30.22h-11.16l-29.28-19.36v19.36h-13.21v-30.22h12.12l28.32,18.47v-18.47h13.21Z"/>
            <path class="cls-3" d="M167.6,229.61h-12.46l-27.98-18.5v18.5h-15.21v-32.22h13.41l27.03,17.63v-17.63h15.21v32.22Z"/>
          </g>
          <g>
            <path class="cls-4" d="M217.79,223.07v5.54h-39.11v-30.22h38.58v5.54h-25.37v6.34h24.19v5.54h-24.19v7.27h25.9Z"/>
            <path class="cls-3" d="M218.79,229.61h-41.11v-32.22h40.58v7.54h-25.37v4.34h24.19v7.54h-24.19v5.27h25.9v7.54Z"/>
          </g>
          <g>
            <path class="cls-4" d="M227.89,198.39h22.94c5.47,0,9.76.75,12.89,2.25,3.13,1.5,4.69,3.27,4.69,5.32,0,2.62-2.42,4.63-7.25,6.03,3.65.55,6.44,1.52,8.37,2.9,1.94,1.39,2.91,3,2.91,4.85,0,2.63-1.58,4.76-4.75,6.41-3.16,1.65-7.82,2.47-13.97,2.47h-25.82v-30.22Z"/>
            <path class="cls-3" d="M253.71,229.61h-26.82v-32.22h23.94c5.59,0,10.07.79,13.32,2.35,3.49,1.67,5.26,3.77,5.26,6.22s-1.56,4.29-4.63,5.76c2.17.59,3.95,1.38,5.33,2.36,2.21,1.58,3.32,3.48,3.32,5.66,0,3.02-1.78,5.47-5.29,7.29-3.29,1.71-8.15,2.58-14.44,2.58Z"/>
          </g>
          <g>
            <path class="cls-4" d="M319.97,198.39h13.21v17.15c0,4.41-2.29,7.76-6.87,10.04-4.58,2.28-11.13,3.42-19.63,3.42s-14.93-1.15-19.57-3.46c-4.65-2.31-6.97-5.62-6.97-9.95v-17.2h13.25v17.37c0,2.11,1.21,3.79,3.63,5.06,2.42,1.27,5.59,1.9,9.51,1.9s7.33-.65,9.78-1.95c2.44-1.3,3.66-3.14,3.66-5.54v-16.85Z"/>
            <path class="cls-3" d="M306.68,230c-8.52,0-15.26-1.2-20.02-3.57-4.99-2.48-7.52-6.13-7.52-10.85v-18.2h15.25v18.37c0,1.72,1.01,3.08,3.09,4.18,2.26,1.19,5.3,1.79,9.05,1.79s7.02-.62,9.31-1.83c2.11-1.12,3.13-2.64,3.13-4.66v-17.85h15.21v18.16c0,4.8-2.5,8.48-7.43,10.93-4.7,2.34-11.46,3.52-20.08,3.52Z"/>
          </g>
          <g>
            <path class="cls-4" d="M344.65,198.39h23.69c5.14,0,9.32.85,12.53,2.54,3.21,1.69,4.82,3.74,4.82,6.15,0,3.33-3.04,5.79-9.11,7.39,2.66.69,5.19,2.55,7.59,5.58,2.4,3.03,4.72,5.88,6.95,8.56h-14.5c-.87-1-2.37-2.89-4.52-5.69-2.15-2.8-3.99-4.59-5.52-5.39-1.53-.79-3.17-1.19-4.92-1.19h-3.8v12.27h-13.21v-30.22Z"/>
            <path class="cls-3" d="M393.27,229.61h-17.09l-.3-.34c-.88-1.01-2.41-2.94-4.56-5.74-2.05-2.67-3.8-4.39-5.19-5.11-1.38-.72-2.88-1.08-4.46-1.08h-2.8v12.27h-15.21v-32.22h24.69c5.28,0,9.65.89,13,2.66,3.55,1.87,5.36,4.24,5.36,7.04,0,3.26-2.4,5.78-7.16,7.52,1.89,1.05,3.7,2.66,5.42,4.83,2.39,3.02,4.73,5.89,6.93,8.54l1.37,1.64Z"/>
          </g>
          <g>
            <path class="cls-4" d="M447.9,200.49v6.6c-6.76-1.86-13.37-2.79-19.82-2.79s-11.03.89-14.39,2.68c-3.37,1.79-5.05,4.07-5.05,6.84s1.68,4.8,5.05,6.45c3.37,1.64,7.8,2.47,13.29,2.47,2.91,0,5.83-.36,8.77-1.08v-3.53h-7.67v-5.54h20.92v12.35c-2.1,1.2-5.3,2.17-9.59,2.93-4.29.76-8.54,1.14-12.74,1.14-9.24,0-16.83-1.45-22.76-4.36-5.94-2.91-8.9-6.6-8.9-11.09s2.97-8.32,8.9-11.22c5.94-2.89,13.63-4.34,23.07-4.34,7.8,0,14.77.83,20.92,2.49Z"/>
            <path class="cls-3" d="M426.67,230c-9.35,0-17.16-1.5-23.2-4.46-6.28-3.07-9.46-7.11-9.46-11.98s3.19-9.06,9.47-12.12c6.05-2.95,13.96-4.44,23.51-4.44,7.85,0,14.97.85,21.18,2.52l.74.2v8.68l-1.27-.35c-6.64-1.83-13.22-2.76-19.56-2.76s-10.72.86-13.92,2.57c-3.04,1.62-4.52,3.56-4.52,5.95,0,2.26,1.47,4.07,4.49,5.55,3.21,1.57,7.54,2.36,12.85,2.36,2.57,0,5.18-.29,7.77-.87v-1.73h-7.67v-7.54h22.92v13.93l-.5.29c-2.22,1.27-5.46,2.26-9.91,3.05-4.33.76-8.67,1.15-12.91,1.15Z"/>
          </g>
        </g>
        <g>
          <g>
            <path class="cls-1" d="M194.91,135.59c.03-2.14.02-4.28-.09-6.41-.06-1.08.13-1.87.58-2.38-.37-2.36-.91-4.62-1.63-6.76-2.38-.06-4.76-.05-7.14.09-1.33.08-2.72-.15-3.99.15-3.39.81-6.84,1.01-9.13-1.82-2.45-3.03-1.58-9.86.66-13.06,1.36-1.94,3.02-2.29,5.13-2.17,1.07.06,2.15.1,3.22.12-1.6-1.48-3.34-2.91-5.21-4.29-5.4-.55-10.73-1.79-16.18-1.65-.57.3-1.15.85-1.72.85-11.57.05-23.15.04-35.85.04,4.94-4.6,9.98-3.31,14.4-2.78,5.32.64,10.58.65,15.89.68.46-5.69.46-5.57-5.46-5.77-5.29-.18-10.61.6-15.9-.76-1.4-.36-3.21.54-4.76,1.05-3.18,1.03-5.8.47-7.8-2.29-2.72-.09-5.07,1.29-7.63,1.83-1.7.36-4.16,1.25-4.29-1.39-.12-2.33-1.48-6.18,3.09-6.35,5.61-.22,11.24-.07,16.85-.08,1.02-1.14,2.41-1.02,3.72-.97,11.47.42,22.94-.07,34.43.6,4.5.26,9.1.31,13.69.16,1.42-1.52,2.69-3.1,3.84-4.76-2.17,0-4.34,0-6.51,0-5.09,1.88-10.15-.96-15.23-.1-3.95.04-7.91.08-11.86.12-5.1.93-10.16-1.24-15.32-.13-1.71.37-2.62-.91-2.27-2.86.57-3.22,1.3-6.47,1.36-9.72.07-3.71,1.6-4.84,4.94-3.62,2.23.81,4.24.4,6.3-.36,7.41-1.89,14.71-1.28,21.93.98,1.65-.07,3.31-.14,4.96-.22,1.47-1.59,3.44-1.9,5.43-1.8,4.38.22,8.79-.43,13.16-.22.21-1.51.34-3.06.41-4.64-.01.02-.03.05-.04.07-.89.99-2.15.74-3.29.74-11.17-.02-22.34-.07-33.52-.11-6.07.18-12.14.47-18.2-.2-8.12.11-16.23.23-24.35.3-.2,0-.41,0-.63-.02,0,.17.02.32.02.49,0,1.07-.07,2.07-.17,3.04,3.76.73,7.58.31,11.37.55,2.21.14,5.03-1.3,6.26,2.26,1.36,3.93,3.05,7.77.09,11.61-2.02,2.62-4.78,3.96-8.19,3.93-9.47-.07-18.93-.1-28.4-.14-15.05.81-30.05-1.31-45.09-.83-.92.83-1.89,1.47-2.83.08-.25-.37-.19-.94-.31-1.41-3-11.68.46-16.17,12.76-16.5,2.81-.08,5.62-.02,8.42-.03.62-4.27-1.54-4.75-4.93-3.5-1.37.5-2.72,1.04-4.08,1.56-5.35-.03-10.7-.05-16.05-.08-9.14.5-18.06-1.68-27.1-2.43-4-.33-7.85-.03-11.66.39v5.99c.42.98.51,2.48.52,4.76,0,.99,0,1.98,0,2.97,0,2.7-.11,4.64-.51,6v7.56c5.29-.79,10.57-1.7,15.89-1.29,8.47.65,16.85.71,25.31-.04,5.63-.5,11.01,2.54,16.78,1.86,1.81-.21,2.09,1.53,2.18,2.77.13,1.9-1.53,1.21-2.54,1.33-.82.1-1.68-.03-2.49.09-1.28.2-2.24.97-2.09,2.31.13,1.28,1.35,1.31,2.34,1.29,2.27-.05,4.28.58,6,2.04,1.59,1.34,1.9,3.04,1.32,4.93-.53,1.73-1.97,2.32-3.53,2.11-11.62-1.56-23.28.79-34.84-.31-3.86-.37-8.02.32-11.71-1.58-4.22-.14-8.43-.19-12.61,0v6.08c.18,0,.37,0,.55,0,11.6-2.63,23.07.27,34.61.69,2.07.07,3.26,1.26,3.39,2.95.29,3.59.23,7.21.19,10.81-.02,1.67-1.29,2.04-2.75,2.19-8.93.92-17.9,1.05-26.86.79-3.29-.09-6.38-1.36-5.44-5.27.95-3.92-.83-6.5-2.88-9.25-.25,1.17-.04,2.47-.82,3.49v16.26c3.23-.13,6.44-.38,9.62-.79,8.21-1.06,16.37-.6,24.47-1.71,8.31-1.15,16.63-.43,24.95-.48,3.23-.02,5.3,1.5,4.82,5.24-.25,1.94-.03,3.95-.04,5.92-.01,7.37-.55,8.2-8.16,8.27-5.96.06-11.93-.84-17.9-1.05-12.58-.44-25.17-1.2-37.75-.81v6.59c.45.52.41,1.4.24,2.28.34,1.63.09,3.21-.24,4.81v14.4c7.6-.26,15.18-.77,22.78-.16,3.2.26,5.48-.98,6.54-4.09-7.16-.22-14.34.21-21.46-.78-3.57,1.12-4.79-1.51-4.94-3.87-.25-3.84.34-7.75.68-11.61.17-1.99,1.76-1.46,3.03-1.43,6.2-1.28,12.49-1.07,18.77-1.28,3.27-.11,5.8.66,7.46,3.54,3.65-2.8,5.47.05,6.51,2.6,1.57,3.84-1.82,4.84-4.51,5.99.21,1.77,3.58,1.64,2.58,4.09-.94,2.28-2.93,2.81-5.2,2.73.52,3.74,3.31,4.38,6.28,3.97,12.83-1.79,25.49,1.26,38.25,1.12,1.37-.02,2.75-.04,4.12-.06,5.71.46,11.39-1.61,17.1-.19,2.34.24,4.69.48,7.03.72,5.18-1.53,10.45-2.02,15.82-1.35,3.42-.25,6.84-.32,10.25.19,4.86-1.04,9.69.19,14.35.94,9.4,1.51,18.59-.13,27.83-.72,2.76-.18,5.47-.21,8.19-.2,1.38-1.36,2.66-2.78,3.83-4.26-2.8.29-5.56.76-8.37.91-3.36.17-4.97-1.14-5.53-4.2-1.52-8.36-.46-14.1,10.34-13.68,3.18.12,6.31-.13,9.38-.96.9-.59,1.87-.91,2.86-1.1.39-1.96.66-3.99.82-6.07-.63-1.03-.91-2.39-.89-4.07Z"/>
            <path class="cls-3" d="M131.78,187H0V0h118.27c24.09,0,42.58,4.74,54.94,14.08,12.44,9.41,18.75,22.39,18.75,38.56,0,17.11-7.86,30.47-23.37,39.73,8.98,4.88,15.94,10.58,20.72,16.96,5.1,6.81,7.69,15.4,7.69,25.51,0,15.76-5.8,28.54-17.25,37.99-11.39,9.4-27.53,14.17-47.97,14.17ZM2,185h129.78c19.97,0,35.68-4.61,46.7-13.71,10.96-9.05,16.52-21.31,16.52-36.45,0-9.67-2.45-17.85-7.29-24.31-4.88-6.51-12.16-12.31-21.64-17.23l-1.65-.85,1.62-.91c15.88-8.9,23.93-21.99,23.93-38.89,0-15.51-6.04-27.95-17.96-36.97-12.01-9.08-30.08-13.68-53.73-13.68H2v183ZM86.59,146.27h-22.57v-42.01h25.76c16.06,0,24.21,7.35,24.21,21.85,0,7.34-2.19,12.61-6.5,15.67-4.26,3.02-11.1,4.49-20.9,4.49ZM66.02,144.27h20.57c9.24,0,15.88-1.39,19.74-4.12,3.75-2.66,5.66-7.38,5.66-14.04,0-13.36-7.26-19.85-22.21-19.85h-23.76v38.01ZM86.1,75.22h-22.08v-38.01h25.02c15.17,0,22.86,6.37,22.86,18.94,0,6.94-2.04,11.92-6.06,14.81-3.98,2.86-10.43,4.25-19.74,4.25ZM66.02,73.22h20.08c8.75,0,15-1.3,18.57-3.87,3.47-2.5,5.23-6.93,5.23-13.19,0-11.4-6.82-16.94-20.86-16.94h-23.02v34.01Z"/>
          </g>
        </g>
      </g>
    </g>
  </g>
</svg>
